<svg width="134" height="49" viewBox="0 0 134 49" fill="none" xmlns="http://www.w3.org/2000/svg">
<path d="M52.516 0.583999L26.948 49H18.448L0.428 0.583999H11.444L23.82 35.74L41.704 0.583999H52.516ZM54.6749 11.264H62.9959L60.0279 49H51.7599L54.6749 11.264ZM93.3558 29.549C95.3345 30.1143 96.8715 31.1743 97.9668 32.729C99.0621 34.2837 99.6098 36.121 99.6098 38.241C99.6098 41.6683 98.3555 44.3183 95.8468 46.191C93.3735 48.0637 90.0168 49 85.7768 49H67.6508L70.5658 11.264H87.4198C91.5185 11.264 94.6455 12.1297 96.8008 13.861C98.9561 15.5923 100.034 17.889 100.034 20.751C100.034 24.9557 97.8078 27.8883 93.3558 29.549ZM85.4058 26.634C87.7025 26.634 89.3808 26.263 90.4408 25.521C91.5008 24.779 92.0308 23.5777 92.0308 21.917C92.0308 20.5037 91.5361 19.4437 90.5468 18.737C89.5928 17.995 88.0911 17.624 86.0418 17.624H78.2508L77.5088 26.634H85.4058ZM85.1408 42.64C87.4728 42.64 89.1688 42.269 90.2288 41.527C91.2888 40.7497 91.8188 39.4777 91.8188 37.711C91.8188 36.121 91.3241 34.9373 90.3348 34.16C89.3808 33.3827 87.8615 32.994 85.7768 32.994H77.0318L76.2368 42.64H85.1408ZM133.386 17.253L113.352 42.481H132.008L131.478 49H103.388L103.812 42.958L123.793 17.783H105.826L106.356 11.264H133.81L133.386 17.253Z" fill="#ED4F3A"/>
</svg>
